<mxfile host="65bd71144e">
    <diagram id="2-7dizOtgUSfuAUfQcp0" name="Page-1">
        <mxGraphModel dx="1074" dy="790" grid="1" gridSize="10" guides="1" tooltips="1" connect="1" arrows="1" fold="1" page="1" pageScale="1" pageWidth="1800" pageHeight="1600" math="0" shadow="0">
            <root>
                <mxCell id="0"/>
                <mxCell id="1" parent="0"/>
                <mxCell id="49" value="" style="rounded=0;whiteSpace=wrap;html=1;labelBackgroundColor=#F5F5F5;fontSize=15;fontColor=#ffffff;fillColor=#60a917;strokeColor=#2D7600;opacity=50;" parent="1" vertex="1">
                    <mxGeometry x="140" y="255" width="540" height="875" as="geometry"/>
                </mxCell>
                <mxCell id="54" value="-&amp;gt; get Health Nemesis&lt;br&gt;-&amp;gt; Deal Damage&lt;br&gt;-&amp;gt; animation.&lt;br&gt;return new Health value" style="shape=card;whiteSpace=wrap;html=1;" parent="1" vertex="1">
                    <mxGeometry x="460" y="990" width="140" height="110" as="geometry"/>
                </mxCell>
                <mxCell id="52" value="Get into Animation?" style="shape=card;whiteSpace=wrap;html=1;" parent="1" vertex="1">
                    <mxGeometry x="190" y="820" width="140" height="50" as="geometry"/>
                </mxCell>
                <mxCell id="14" value="&lt;font style=&quot;font-size: 15px&quot; color=&quot;#000000&quot;&gt;?&lt;/font&gt;" style="rounded=0;whiteSpace=wrap;html=1;fillColor=#ffff88;strokeColor=#36393d;" parent="1" vertex="1">
                    <mxGeometry x="550" y="800" width="40" height="40" as="geometry"/>
                </mxCell>
                <mxCell id="13" value="&lt;font style=&quot;font-size: 15px&quot; color=&quot;#000000&quot;&gt;?&lt;/font&gt;" style="rounded=0;whiteSpace=wrap;html=1;fillColor=#ffff88;strokeColor=#36393d;" parent="1" vertex="1">
                    <mxGeometry x="390" y="540" width="40" height="40" as="geometry"/>
                </mxCell>
                <mxCell id="15" value="" style="edgeStyle=none;html=1;entryX=0.5;entryY=0;entryDx=0;entryDy=0;exitX=0.5;exitY=1;exitDx=0;exitDy=0;" parent="1" source="4" edge="1">
                    <mxGeometry relative="1" as="geometry">
                        <mxPoint x="390" y="420" as="sourcePoint"/>
                        <mxPoint x="410" y="430" as="targetPoint"/>
                    </mxGeometry>
                </mxCell>
                <mxCell id="3" value="&lt;font style=&quot;font-size: 15px&quot; color=&quot;#000000&quot;&gt;?&lt;/font&gt;" style="rounded=0;whiteSpace=wrap;html=1;fillColor=#ffff88;strokeColor=#36393d;" parent="1" vertex="1">
                    <mxGeometry x="390" y="270" width="40" height="40" as="geometry"/>
                </mxCell>
                <mxCell id="4" value="&lt;font style=&quot;font-size: 15px&quot;&gt;Defined Guardspot is Close?&lt;/font&gt;" style="rounded=0;whiteSpace=wrap;html=1;" parent="1" vertex="1">
                    <mxGeometry x="310" y="310" width="200" height="90" as="geometry"/>
                </mxCell>
                <mxCell id="66" value="" style="edgeStyle=none;html=1;" parent="1" source="6" target="64" edge="1">
                    <mxGeometry relative="1" as="geometry"/>
                </mxCell>
                <mxCell id="6" value="Guard (Sheep Dog)" style="rounded=0;whiteSpace=wrap;html=1;fillColor=#60a917;fontColor=#ffffff;strokeColor=#2D7600;" parent="1" vertex="1">
                    <mxGeometry x="510" y="60" width="140" height="60" as="geometry"/>
                </mxCell>
                <mxCell id="11" value="&lt;font style=&quot;font-size: 15px&quot;&gt;Nemesis Entity Visible?&lt;/font&gt;" style="rounded=0;whiteSpace=wrap;html=1;" parent="1" vertex="1">
                    <mxGeometry x="310" y="580" width="200" height="90" as="geometry"/>
                </mxCell>
                <mxCell id="81" value="" style="edgeStyle=none;html=1;" parent="1" source="12" target="34" edge="1">
                    <mxGeometry relative="1" as="geometry"/>
                </mxCell>
                <mxCell id="12" value="&lt;font style=&quot;font-size: 15px&quot;&gt;Nemesis Entity Close?&lt;/font&gt;" style="rounded=0;whiteSpace=wrap;html=1;" parent="1" vertex="1">
                    <mxGeometry x="470" y="840" width="200" height="90" as="geometry"/>
                </mxCell>
                <mxCell id="16" value="" style="edgeStyle=none;html=1;entryX=0.506;entryY=-0.039;entryDx=0;entryDy=0;exitX=0.5;exitY=1;exitDx=0;exitDy=0;entryPerimeter=0;" parent="1" target="13" edge="1">
                    <mxGeometry relative="1" as="geometry">
                        <mxPoint x="410" y="490" as="sourcePoint"/>
                        <mxPoint x="420" y="440" as="targetPoint"/>
                    </mxGeometry>
                </mxCell>
                <mxCell id="17" value="" style="edgeStyle=none;html=1;exitX=0.5;exitY=1;exitDx=0;exitDy=0;" parent="1" source="11" edge="1">
                    <mxGeometry relative="1" as="geometry">
                        <mxPoint x="430" y="420" as="sourcePoint"/>
                        <mxPoint x="410" y="710" as="targetPoint"/>
                    </mxGeometry>
                </mxCell>
                <mxCell id="20" value="Become&lt;br&gt;Alert" style="ellipse;whiteSpace=wrap;html=1;fontSize=15;fillColor=#fa6800;strokeColor=#C73500;fontColor=#000000;" parent="1" vertex="1">
                    <mxGeometry x="290" y="790" width="80" height="50" as="geometry"/>
                </mxCell>
                <mxCell id="27" value="&lt;br&gt;&lt;br&gt;Confi&lt;br&gt;(Range for being not close anymore)&lt;br&gt;(Range for being back at Guard Spot" style="shape=note;whiteSpace=wrap;html=1;backgroundOutline=1;darkOpacity=0.05;" parent="1" vertex="1">
                    <mxGeometry x="160" y="310" width="90" height="140" as="geometry"/>
                </mxCell>
                <mxCell id="28" value="" style="endArrow=none;dashed=1;html=1;dashPattern=1 3;strokeWidth=2;fontSize=15;exitX=0;exitY=0.5;exitDx=0;exitDy=0;" parent="1" source="4" edge="1">
                    <mxGeometry width="50" height="50" relative="1" as="geometry">
                        <mxPoint x="410" y="410" as="sourcePoint"/>
                        <mxPoint x="250" y="355" as="targetPoint"/>
                    </mxGeometry>
                </mxCell>
                <mxCell id="31" value="" style="endArrow=classic;html=1;fontSize=15;entryX=0.5;entryY=0;entryDx=0;entryDy=0;exitX=0.5;exitY=1;exitDx=0;exitDy=0;" parent="1" target="20" edge="1">
                    <mxGeometry width="50" height="50" relative="1" as="geometry">
                        <mxPoint x="410" y="770" as="sourcePoint"/>
                        <mxPoint x="380" y="690" as="targetPoint"/>
                    </mxGeometry>
                </mxCell>
                <mxCell id="34" value="Attack&lt;br&gt;Nemesis" style="ellipse;whiteSpace=wrap;html=1;fontSize=15;fillColor=#fa6800;strokeColor=#C73500;fontColor=#000000;" parent="1" vertex="1">
                    <mxGeometry x="530" y="960" width="80" height="50" as="geometry"/>
                </mxCell>
                <mxCell id="41" value="&lt;br&gt;&lt;br&gt;Confi&lt;br&gt;(Range)" style="shape=note;whiteSpace=wrap;html=1;backgroundOutline=1;darkOpacity=0.05;" parent="1" vertex="1">
                    <mxGeometry x="390" y="860" width="50" height="70" as="geometry"/>
                </mxCell>
                <mxCell id="42" value="" style="endArrow=none;dashed=1;html=1;dashPattern=1 3;strokeWidth=2;fontSize=15;" parent="1" edge="1">
                    <mxGeometry width="50" height="50" relative="1" as="geometry">
                        <mxPoint x="470" y="890" as="sourcePoint"/>
                        <mxPoint x="440" y="890" as="targetPoint"/>
                    </mxGeometry>
                </mxCell>
                <mxCell id="47" value="" style="edgeStyle=none;html=1;entryX=0.5;entryY=0;entryDx=0;entryDy=0;exitX=0.5;exitY=1;exitDx=0;exitDy=0;" parent="1" source="63" target="3" edge="1">
                    <mxGeometry relative="1" as="geometry">
                        <mxPoint x="570" y="180" as="sourcePoint"/>
                        <mxPoint x="420.0000000000002" y="440" as="targetPoint"/>
                    </mxGeometry>
                </mxCell>
                <mxCell id="48" value="" style="edgeStyle=none;html=1;entryX=0.5;entryY=0;entryDx=0;entryDy=0;exitX=0.5;exitY=1;exitDx=0;exitDy=0;" parent="1" source="63" target="26" edge="1">
                    <mxGeometry relative="1" as="geometry">
                        <mxPoint x="570" y="180" as="sourcePoint"/>
                        <mxPoint x="890.0000000000002" y="290.0000000000001" as="targetPoint"/>
                    </mxGeometry>
                </mxCell>
                <mxCell id="55" value="" style="group" parent="1" vertex="1" connectable="0">
                    <mxGeometry x="680" y="255" width="210" height="155" as="geometry"/>
                </mxCell>
                <mxCell id="7" value="" style="rounded=0;whiteSpace=wrap;html=1;labelBackgroundColor=#F5F5F5;fontSize=15;fontColor=#333333;fillColor=#f5f5f5;strokeColor=#666666;opacity=50;" parent="55" vertex="1">
                    <mxGeometry width="210" height="110" as="geometry"/>
                </mxCell>
                <mxCell id="51" value="-&amp;gt; Get to Guardplace&lt;br&gt;-&amp;gt; Area?&lt;br&gt;-&amp;gt; Further Behaviour dependend on Animal" style="shape=card;whiteSpace=wrap;html=1;" parent="55" vertex="1">
                    <mxGeometry x="-10" y="35" width="140" height="120" as="geometry"/>
                </mxCell>
                <mxCell id="8" value="Default" style="text;html=1;strokeColor=none;fillColor=none;align=center;verticalAlign=middle;whiteSpace=wrap;rounded=0;labelBackgroundColor=#F5F5F5;fontSize=15;fontColor=#000000;opacity=50;" parent="55" vertex="1">
                    <mxGeometry x="140" y="80" width="60" height="30" as="geometry"/>
                </mxCell>
                <mxCell id="26" value="Return to Guard place" style="ellipse;whiteSpace=wrap;html=1;fontSize=15;fillColor=#fa6800;strokeColor=#C73500;fontColor=#000000;" parent="55" vertex="1">
                    <mxGeometry x="55" width="100" height="60" as="geometry"/>
                </mxCell>
                <mxCell id="59" value="" style="edgeStyle=none;html=1;exitX=0.5;exitY=1;exitDx=0;exitDy=0;entryX=0.5;entryY=0;entryDx=0;entryDy=0;" parent="1" target="60" edge="1">
                    <mxGeometry relative="1" as="geometry">
                        <mxPoint x="410" y="490" as="sourcePoint"/>
                        <mxPoint x="850" y="500" as="targetPoint"/>
                    </mxGeometry>
                </mxCell>
                <mxCell id="60" value="Stray" style="ellipse;whiteSpace=wrap;html=1;fontSize=15;fillColor=#fa6800;strokeColor=#C73500;fontColor=#000000;" parent="1" vertex="1">
                    <mxGeometry x="530" y="540" width="80" height="50" as="geometry"/>
                </mxCell>
                <mxCell id="61" value="" style="group" parent="1" vertex="1" connectable="0">
                    <mxGeometry x="530" y="150" width="100" height="60" as="geometry"/>
                </mxCell>
                <mxCell id="62" value="" style="rounded=0;whiteSpace=wrap;html=1;fontSize=15;fillColor=#eeeeee;strokeColor=#36393d;" parent="61" vertex="1">
                    <mxGeometry width="100" height="60" as="geometry"/>
                </mxCell>
                <mxCell id="63" value="" style="shape=tapeData;whiteSpace=wrap;html=1;perimeter=ellipsePerimeter;fillColor=#FFFFFF;strokeColor=#050505;" parent="61" vertex="1">
                    <mxGeometry x="19.230769230769234" width="61.53846153846154" height="60" as="geometry"/>
                </mxCell>
                <mxCell id="64" value="&lt;br&gt;" style="html=1;shadow=0;dashed=0;align=center;verticalAlign=middle;shape=mxgraph.arrows2.quadArrow;dy=3.33;dx=8.83;notch=24;arrowHead=10;" parent="61" vertex="1">
                    <mxGeometry x="23.076923076923077" y="7.5" width="53.84615384615385" height="45" as="geometry"/>
                </mxCell>
                <mxCell id="67" value="" style="group" parent="1" vertex="1" connectable="0">
                    <mxGeometry x="360" y="430" width="100" height="60" as="geometry"/>
                </mxCell>
                <mxCell id="68" value="" style="rounded=0;whiteSpace=wrap;html=1;fontSize=15;fillColor=#eeeeee;strokeColor=#36393d;" parent="67" vertex="1">
                    <mxGeometry width="100" height="60" as="geometry"/>
                </mxCell>
                <mxCell id="69" value="" style="shape=tapeData;whiteSpace=wrap;html=1;perimeter=ellipsePerimeter;fillColor=#FFFFFF;strokeColor=#050505;" parent="67" vertex="1">
                    <mxGeometry x="19.230769230769234" width="61.53846153846154" height="60" as="geometry"/>
                </mxCell>
                <mxCell id="70" value="&lt;br&gt;" style="html=1;shadow=0;dashed=0;align=center;verticalAlign=middle;shape=mxgraph.arrows2.quadArrow;dy=3.33;dx=8.83;notch=24;arrowHead=10;" parent="67" vertex="1">
                    <mxGeometry x="23.076923076923077" y="7.5" width="53.84615384615385" height="45" as="geometry"/>
                </mxCell>
                <mxCell id="72" value="" style="endArrow=classic;html=1;fontSize=15;entryX=0.5;entryY=0;entryDx=0;entryDy=0;exitX=0.5;exitY=1;exitDx=0;exitDy=0;" parent="1" target="14" edge="1">
                    <mxGeometry width="50" height="50" relative="1" as="geometry">
                        <mxPoint x="410" y="770" as="sourcePoint"/>
                        <mxPoint x="330" y="800" as="targetPoint"/>
                        <Array as="points"/>
                    </mxGeometry>
                </mxCell>
                <mxCell id="80" value="" style="group" parent="1" vertex="1" connectable="0">
                    <mxGeometry x="360" y="710" width="100" height="60" as="geometry"/>
                </mxCell>
                <mxCell id="78" value="" style="rounded=0;whiteSpace=wrap;html=1;fontSize=15;fillColor=#eeeeee;strokeColor=#36393d;" parent="80" vertex="1">
                    <mxGeometry width="100" height="60" as="geometry"/>
                </mxCell>
                <mxCell id="79" value="" style="shape=flexArrow;endArrow=classic;html=1;fillColor=#050505;gradientColor=#191919;strokeColor=#666666;" parent="80" edge="1">
                    <mxGeometry width="50" height="50" relative="1" as="geometry">
                        <mxPoint x="20" y="29.710000000000036" as="sourcePoint"/>
                        <mxPoint x="80" y="29.710000000000036" as="targetPoint"/>
                        <Array as="points">
                            <mxPoint x="40" y="29.709999999999923"/>
                            <mxPoint x="50" y="29.709999999999923"/>
                        </Array>
                    </mxGeometry>
                </mxCell>
            </root>
        </mxGraphModel>
    </diagram>
</mxfile>